<?xml version="1.0" encoding="UTF-8"?>
<svg id="Ebene_2" data-name="Ebene 2" xmlns="http://www.w3.org/2000/svg" viewBox="0 0 358.18 120.81">
  <g>
    <path d="M160.6,59.87c0,33.07-26.64,59.87-59.5,59.87-28.33,0-52.03-19.92-58.03-46.6C18.1,83.33-2.14,64.83,.18,64.83c10.83,3.17,34,2.75,41.42-4.96C41.6,26.81,68.24,0,101.1,0s59.5,26.81,59.5,59.87Z" style="fill: #fdf21c;"/>
    <path d="M43.16,73.24s53.91-44.77,83.78-7.52c0,0,15.87,1.38,30.5,13.38,0,0-17,55.38-75.87,37.38,0,0-30.32-8.95-38.41-43.23Z" style="fill: #ce000c;"/>
    <path d="M48.29,87.41s55.06-39.91,78.56-21.78c0,0-21.38-1.62-36.12,13.12,0,0-12.62,11.72-32.88,21.97,0,0-5.03-4.34-9.56-13.31Z" style="fill: #000001;"/>
    <path d="M77.47,114.81s36.88-33.87,68.12-14.62c0,0-24.5,34.06-68.12,14.62Z" style="fill: #000001;"/>
    <path d="M19.97,101.37s23.12,10.25,51.38-12.5c0,0,19.75-14.25,32.12-14.62,0,0,10.12-2.12,39.62,11.37,0,0,25,10.62,46.88,.5,0,0-18,31.5-61.88,6.25,0,0-20.5-15.54-41,.12,0,0-41.12,41.12-67.12,8.87Z" style="fill: #000168;"/>
    <path d="M83.27,30.5s16.33-11.17,24.17-6.17h5.17s9.67-8,23.67,5c0,0-12.83-5.33-22.17-1.33,0,0-.5,3.33,.5,3.67,0,0-7,3.67-10.17-3.67,0,0-16.33,.33-21.17,2.5Z" style="fill: #000001;"/>
  </g>
  <text transform="translate(174.35 48.5)" style="font-family: Georgia, Georgia; font-size: 36px; letter-spacing: .03em;"><tspan x="0" y="0">AQUARUS</tspan></text>
  <text transform="translate(185.6 70.5)" style="font-family: Georgia, Georgia; font-size: 13px; letter-spacing: 0em;"><tspan x="0" y="0">Stone Development &amp; Tools</tspan></text>
  <path d="M192.43,93.67s25.33,5.5,68.5-6.83c0,0,49.33-14.17,76.17,0,0,0-27-5.67-69.83,6.83,0,0-47.17,14.5-74.83,0Z" style="fill: #0098f0;"/>
  <path d="M204.43,100.33s24.67,6.5,68.67-6.83c0,0,44-13.83,81.67,0,0,0-25-5.17-70.83,7,0,0-46.33,15.17-79.5-.17Z" style="fill: #000168;"/>
</svg>